<?xml version="1.0" encoding="utf-8"?>
<!-- Generator: Adobe Illustrator 20.1.0, SVG Export Plug-In . SVG Version: 6.00 Build 0)  -->
<svg version="1.1" id="Layer_1" xmlns="http://www.w3.org/2000/svg" xmlns:xlink="http://www.w3.org/1999/xlink" x="0px" y="0px"
	 viewBox="0 0 500 30" style="enable-background:new 0 0 500 30;" xml:space="preserve">
<g>
	<path d="M162.1,21.1v-12c0-0.4,0.3-0.7,0.6-0.7h11.8c0.4,0,0.7,0.3,0.7,0.7v0.9c0,0.4-0.2,0.7-0.7,0.7h-10v3.3h7.1
		c0.4,0,0.7,0.3,0.7,0.7v0.9c0,0.4-0.3,0.7-0.7,0.7h-7.1v5c0,0.4-0.2,0.7-0.7,0.7h-1.1C162.3,21.7,162.1,21.5,162.1,21.1z"/>
	<path d="M198,15.1c0,4-3.4,6.9-7.8,6.9c-4.5,0-7.8-3-7.8-6.9c0-4,3.4-6.9,7.8-6.9C194.6,8.1,198,11.1,198,15.1z M184.9,15.1
		c0,2.7,2.3,4.7,5.3,4.7c3,0,5.3-2,5.3-4.7c0-2.7-2.3-4.7-5.3-4.7C187.2,10.4,184.9,12.4,184.9,15.1z"/>
	<path d="M207.7,21.1v-12c0-0.4,0.3-0.7,0.6-0.7h8.6c3.2,0,4.7,1.6,4.7,4.2c0,2-1.1,3.6-3.5,4.1l3.8,4.2c0.1,0.1,0.2,0.3,0.2,0.4
		c0,0.3-0.2,0.5-0.6,0.5h-1.5c-0.4,0-0.6-0.2-0.9-0.4l-4.1-4.6h-5v4.4c0,0.4-0.2,0.7-0.7,0.7h-1.1C208,21.7,207.7,21.5,207.7,21.1z
		 M210.1,10.6v3.9h6.7c1.4,0,2.3-0.8,2.3-2c0-1.3-1-1.9-2.3-1.9H210.1z"/>
	<path d="M232.1,21.1v-12c0-0.4,0.3-0.7,0.6-0.7h11.8c0.4,0,0.7,0.3,0.7,0.7v0.9c0,0.4-0.2,0.7-0.7,0.7h-10v3.3h7.2
		c0.4,0,0.7,0.3,0.7,0.7v0.9c0,0.4-0.3,0.7-0.7,0.7h-7.2v3.5h10c0.4,0,0.7,0.3,0.7,0.7v0.9c0,0.4-0.2,0.7-0.7,0.7h-11.8
		C232.4,21.7,232.1,21.5,232.1,21.1z"/>
	<path d="M261.4,19.7c2.3,0,4.1-1.2,5.1-2.6c0.1-0.2,0.3-0.3,0.5-0.3c0.1,0,0.3,0,0.4,0.1l0.4,0.3c0.3,0.3,0.6,0.6,0.6,1
		c0,0.2-0.1,0.5-0.3,0.8c-1.3,1.6-3.8,2.9-6.6,2.9c-4.3,0-7.7-2.9-7.7-6.9c0-4,3.4-6.9,7.7-6.9c2.9,0,5.3,1.3,6.6,2.9
		c0.3,0.3,0.4,0.5,0.4,0.8c0,0.3-0.2,0.7-0.6,1l-0.4,0.3c-0.1,0.1-0.3,0.2-0.4,0.2c-0.2,0-0.4-0.1-0.5-0.3c-1.1-1.4-2.8-2.5-5.1-2.5
		c-2.9,0-5.2,2-5.2,4.7C256.2,17.7,258.5,19.7,261.4,19.7z"/>
	<path d="M285.1,8.4c0.4,0,0.7,0.1,0.8,0.5l6.2,12c0.1,0.1,0.1,0.3,0.1,0.4c0,0.3-0.2,0.5-0.6,0.5h-1.2c-0.4,0-0.6-0.1-0.8-0.5
		l-1.4-2.7h-7.7l-1.4,2.7c-0.2,0.3-0.4,0.5-0.8,0.5h-1.2c-0.4,0-0.6-0.2-0.6-0.5c0-0.1,0-0.3,0.1-0.4l6.2-12
		c0.2-0.3,0.4-0.5,0.8-0.5H285.1z M281.6,16.3h5.5l-2.7-5.5L281.6,16.3z"/>
	<path d="M307,19.7c2.1,0,4.2-0.6,4.2-2c0-1.2-1.5-1.5-4.2-1.7c-3.5-0.3-6.5-1-6.5-3.7c0-2.4,2.4-4.2,6.3-4.2c3.3,0,5.3,1.3,5.9,1.7
		c0.3,0.2,0.4,0.5,0.4,0.8c0,0.3-0.2,0.6-0.5,0.8l-0.4,0.3c-0.1,0.1-0.3,0.2-0.4,0.2c-0.2,0-0.4-0.1-0.5-0.2c-1-0.8-2.6-1.4-4.6-1.4
		c-1.9,0-3.8,0.6-3.8,1.8s1.8,1.4,4.2,1.6c4.2,0.3,6.6,1.1,6.6,3.7c0,2.9-3,4.5-6.6,4.5c-3.5,0-5.9-1.4-6.7-2.2
		c-0.3-0.3-0.4-0.5-0.4-0.8c0-0.4,0.3-0.6,0.5-0.8l0.4-0.3c0.1-0.1,0.3-0.2,0.5-0.2c0.2,0,0.3,0.1,0.5,0.2
		C303.1,19,304.8,19.7,307,19.7z"/>
	<path d="M330.1,10.6v10.5c0,0.4-0.3,0.7-0.7,0.7h-1.1c-0.4,0-0.6-0.3-0.6-0.7V10.6H322c-0.4,0-0.7-0.3-0.7-0.7V9.1
		c0-0.4,0.3-0.7,0.7-0.7h13.7c0.4,0,0.7,0.3,0.7,0.7v0.9c0,0.4-0.3,0.7-0.7,0.7H330.1z"/>
</g>
</svg>
