<?xml version="1.0" encoding="UTF-8"?>
<svg width="349px" height="152px" viewBox="0 0 349 152" version="1.1" xmlns="http://www.w3.org/2000/svg" xmlns:xlink="http://www.w3.org/1999/xlink">
    <!-- Generator: Sketch 43 (38999) - http://www.bohemiancoding.com/sketch -->
    <title>Artboard</title>
    <desc>Created with Sketch.</desc>
    <defs></defs>
    <g id="Page-1" stroke="none" stroke-width="1" fill="none" fill-rule="evenodd">
        <g id="Artboard">
            <g id="Page-1">
                <path d="M61.8068164,74.7990647 L52.0533274,84.542851 C49.4586276,87.1349697 45.2521166,87.1349697 42.6569652,84.542851 L40.4324853,82.320584 L59.0897634,63.6814148 C62.5242304,60.2503644 68.0915254,60.2503644 71.5255409,63.6814148 L108.636928,100.755884 C110.90475,103.020999 114.699505,102.725118 116.522612,100.0897 C133.737838,75.211765 131.264137,40.8462338 109.095639,18.6997887 C84.1378501,-6.23272166 43.6746185,-6.23272166 18.7181838,18.6997887 C-6.23915382,43.6322991 -6.23915382,84.0552783 18.7181838,108.987338 L60.0911631,150.320062 C62.1982563,152.425059 65.6155668,152.425059 67.7226599,150.320062 L101.973421,116.102922 C104.232665,113.845925 104.232665,110.186649 101.973421,107.931005 L68.8089393,74.7990647 C66.875669,72.8677175 63.7400868,72.8677175 61.8068164,74.7990647" id="Fill-18" fill="#00BCE4"></path>
                <path d="M194.200305,70.5115371 L194.200305,76.1062196 C194.200305,91.0797982 184.153349,103.337674 167.847419,103.337674 C150.964939,103.337674 137.623929,90.0920237 137.623929,73.4735074 C137.623929,57.1017092 150.882768,44.0206884 167.435662,44.0206884 C175.506005,44.0206884 182.753286,47.2289258 187.776538,52.4122611 C188.353088,53.0703264 188.270917,53.5637626 187.776538,54.1397389 L181.435845,61.0505519 C180.941465,61.6265282 180.282745,61.6265282 179.706195,61.1326409 C176.412141,58.3357507 172.376744,56.5257329 167.353491,56.5257329 C158.047427,56.5257329 150.800597,63.9299822 150.800597,73.4735074 C150.800597,83.2637507 157.470877,90.8326291 167.682626,90.8326291 C176.576934,90.8326291 181.518015,85.7318338 181.847601,79.8904332 L168.012212,79.8904332 C167.270869,79.8904332 166.776942,79.396997 166.776942,78.6568427 L166.776942,70.5115371 C166.776942,69.7709318 167.270869,69.2779466 168.012212,69.2779466 L192.965035,69.2779466 C193.706377,69.2779466 194.200305,69.7709318 194.200305,70.5115371" id="Fill-20" fill="#4A4A4A"></path>
                <path d="M202.723896,44.6785733 L213.018268,44.6785733 C213.759159,44.6785733 214.253538,45.1724605 214.253538,45.9126148 L214.253538,101.034039 C214.253538,101.774645 213.759159,102.268532 213.018268,102.268532 L202.723896,102.268532 C201.982554,102.268532 201.488626,101.774645 201.488626,101.034039 L201.488626,45.9126148 C201.488626,45.1724605 201.982554,44.6785733 202.723896,44.6785733" id="Fill-22" fill="#4A4A4A"></path>
                <path d="M278.099634,70.5115371 L278.099634,76.1062196 C278.099634,91.0797982 268.052678,103.337674 251.746748,103.337674 C234.864268,103.337674 221.523258,90.0920237 221.523258,73.4735074 C221.523258,57.1017092 234.782097,44.0206884 251.334991,44.0206884 C259.405334,44.0206884 266.652615,47.2289258 271.675867,52.4122611 C272.252417,53.0703264 272.170246,53.5637626 271.675867,54.1397389 L265.335174,61.0505519 C264.840795,61.6265282 264.182074,61.6265282 263.605524,61.1326409 C260.31147,58.3357507 256.276073,56.5257329 251.25282,56.5257329 C241.946756,56.5257329 234.699927,63.9299822 234.699927,73.4735074 C234.699927,83.2637507 241.370206,90.8326291 251.581955,90.8326291 C260.476263,90.8326291 265.417344,85.7318338 265.74693,79.8904332 L251.911541,79.8904332 C251.170198,79.8904332 250.676271,79.396997 250.676271,78.6568427 L250.676271,70.5115371 C250.676271,69.7709318 251.170198,69.2779466 251.911541,69.2779466 L276.864364,69.2779466 C277.605707,69.2779466 278.099634,69.7709318 278.099634,70.5115371" id="Fill-24" fill="#4A4A4A"></path>
            </g>
        </g>
    </g>
</svg>