<svg id="Layer_1" data-name="Layer 1" xmlns="http://www.w3.org/2000/svg" viewBox="0 0 876.02 354.83"><defs><style>.cls-1{fill:#fff;}.cls-2{fill:#ff2b06;}.cls-3{font-size:146.9px;font-family:Helvetica, Helvetica;}</style></defs><title>TEDxSoMa logo_RGB_CS2</title><rect class="cls-1" width="876.02" height="354.83"/><path class="cls-2" d="M89.93,380.9,82.36,370h7.21l4.05,6,4-6h7l-7.57,10.77,8.5,12.24H98.34l-4.81-7.25L88.73,393H81.65Z" transform="translate(-29.56 -191.94)"/><path d="M135.51,379.38H113v-4.76h22.48Zm0,9.53H113v-4.76h22.48Z" transform="translate(-29.56 -191.94)"/><path d="M152.73,366.43h-6.32v-5.21h6.32ZM146.41,370h6.32v23h-6.32Z" transform="translate(-29.56 -191.94)"/><path d="M156.82,370h6v3.2H163a8.21,8.21,0,0,1,7-3.83c6.72,0,8.41,3.78,8.41,9.48V393h-6.32V380c0-3.78-1.11-5.65-4.05-5.65-3.43,0-4.9,1.91-4.9,6.59V393h-6.32Z" transform="translate(-29.56 -191.94)"/><path d="M198.75,390.06h-.09c-1.47,2.49-4.05,3.56-7,3.56-6.94,0-10.33-6-10.33-12.33,0-6.19,3.43-11.93,10.19-11.93a8,8,0,0,1,6.85,3.43h0V361.22h6.32V393h-6Zm-5.52-15.93c-4.14,0-5.56,3.56-5.56,7.34,0,3.6,1.65,7.39,5.56,7.39,4.18,0,5.43-3.65,5.43-7.43S197.33,374.13,193.23,374.13Z" transform="translate(-29.56 -191.94)"/><path d="M213.84,383c.18,4,2.14,5.83,5.65,5.83,2.54,0,4.58-1.56,5-3H230c-1.78,5.43-5.56,7.74-10.77,7.74-7.26,0-11.75-5-11.75-12.11,0-6.9,4.76-12.15,11.75-12.15,7.83,0,11.62,6.59,11.17,13.66Zm10.28-4c-.58-3.2-2-4.9-5-4.9a5,5,0,0,0-5.25,4.9Z" transform="translate(-29.56 -191.94)"/><path d="M233.29,370h6v2.94h.09a7.66,7.66,0,0,1,6.85-3.56c7.21,0,10.46,5.83,10.46,12.37,0,6.14-3.38,11.88-10.1,11.88a8.17,8.17,0,0,1-6.9-3.47h-.09V401.1h-6.32Zm17.09,11.57c0-3.65-1.47-7.43-5.52-7.43s-5.47,3.69-5.47,7.43,1.42,7.3,5.52,7.3S250.38,385.3,250.38,381.56Z" transform="translate(-29.56 -191.94)"/><path d="M264.8,383c.18,4,2.14,5.83,5.65,5.83,2.54,0,4.58-1.56,5-3H281c-1.78,5.43-5.56,7.74-10.77,7.74-7.26,0-11.75-5-11.75-12.11,0-6.9,4.76-12.15,11.75-12.15,7.83,0,11.62,6.59,11.17,13.66Zm10.28-4c-.58-3.2-2-4.9-5-4.9a5,5,0,0,0-5.25,4.9Z" transform="translate(-29.56 -191.94)"/><path d="M284.25,370h6v3.2h.13a8.21,8.21,0,0,1,7-3.83c6.72,0,8.41,3.78,8.41,9.48V393h-6.32V380c0-3.78-1.11-5.65-4.05-5.65-3.43,0-4.9,1.91-4.9,6.59V393h-6.32Z" transform="translate(-29.56 -191.94)"/><path d="M326.17,390.06h-.09c-1.47,2.49-4.05,3.56-7,3.56-6.94,0-10.33-6-10.33-12.33,0-6.19,3.43-11.93,10.19-11.93a8,8,0,0,1,6.85,3.43h0V361.22h6.32V393h-6Zm-5.52-15.93c-4.14,0-5.56,3.56-5.56,7.34,0,3.6,1.65,7.39,5.56,7.39,4.18,0,5.43-3.65,5.43-7.43S324.75,374.13,320.65,374.13Z" transform="translate(-29.56 -191.94)"/><path d="M341.26,383c.18,4,2.14,5.83,5.65,5.83,2.54,0,4.58-1.56,5-3h5.56c-1.78,5.43-5.56,7.74-10.77,7.74-7.26,0-11.75-5-11.75-12.11,0-6.9,4.76-12.15,11.75-12.15,7.83,0,11.62,6.59,11.17,13.66Zm10.28-4c-.58-3.2-2-4.9-5-4.9a5,5,0,0,0-5.25,4.9Z" transform="translate(-29.56 -191.94)"/><path d="M360.71,370h6v3.2h.13a8.21,8.21,0,0,1,7-3.83c6.72,0,8.41,3.78,8.41,9.48V393H376V380c0-3.78-1.11-5.65-4.05-5.65-3.43,0-4.9,1.91-4.9,6.59V393h-6.32Z" transform="translate(-29.56 -191.94)"/><path d="M394.22,370h4.63v4.23h-4.63v11.39c0,2.14.53,2.67,2.67,2.67a9.74,9.74,0,0,0,2-.18V393a24.22,24.22,0,0,1-3.69.22c-3.87,0-7.26-.89-7.26-5.47V374.22h-3.83V370h3.83v-6.9h6.32Z" transform="translate(-29.56 -191.94)"/><path d="M401.16,361.22h6.32V393h-6.32Z" transform="translate(-29.56 -191.94)"/><path d="M422.93,395.9c-1.38,3.69-3.56,5.21-7.92,5.21a37.56,37.56,0,0,1-3.87-.22v-5.21a33.53,33.53,0,0,0,3.69.22c2.18-.22,2.89-2.49,2.18-4.32L408.91,370h6.77l5.21,15.76H421L426,370h6.54Z" transform="translate(-29.56 -191.94)"/><path d="M456.44,369.37c7.25,0,11.93,4.81,11.93,12.15s-4.67,12.11-11.93,12.11-11.88-4.81-11.88-12.11S449.23,369.37,456.44,369.37Zm0,19.5c4.32,0,5.61-3.69,5.61-7.34s-1.29-7.39-5.61-7.39-5.56,3.69-5.56,7.39S452.17,388.86,456.44,388.86Z" transform="translate(-29.56 -191.94)"/><path d="M470.68,370h6v4.27h.09a8.14,8.14,0,0,1,7.34-4.9,4.7,4.7,0,0,1,1.38.22v5.87a11.55,11.55,0,0,0-2.27-.22c-4.63,0-6.23,3.34-6.23,7.39V393h-6.32Z" transform="translate(-29.56 -191.94)"/><path d="M509.23,391.53c0,3.78-1.34,10.19-11.93,10.19-4.54,0-9.84-2.14-10.15-7.39h6.28c.58,2.36,2.49,3.16,4.72,3.16,3.52,0,5.12-2.4,5.07-5.7v-3h-.09a7.78,7.78,0,0,1-6.9,3.56c-6.9,0-9.84-5.25-9.84-11.57,0-6,3.43-11.39,9.88-11.39,3,0,5.34,1,6.85,3.69h.09V370h6Zm-6-10.33c0-3.74-1.29-7.08-5.39-7.08-3.56,0-5.12,3.12-5.12,6.54s1.25,6.9,5.12,6.9C501.44,387.57,503.22,384.5,503.22,381.21Z" transform="translate(-29.56 -191.94)"/><path d="M512.25,377.07c.36-5.92,5.65-7.7,10.82-7.7,4.58,0,10.1,1,10.1,6.54v12c0,2.09.22,4.18.8,5.12h-6.41a9.39,9.39,0,0,1-.44-2.23,10.55,10.55,0,0,1-7.75,2.85c-4.36,0-7.83-2.18-7.83-6.9,0-5.21,3.92-6.45,7.83-7s7.48-.44,7.48-3-1.87-3.12-4.1-3.12c-2.4,0-4,1-4.18,3.47Zm14.6,4.67c-1.07.94-3.29,1-5.25,1.34s-3.74,1.07-3.74,3.38,1.83,2.94,3.87,2.94c4.94,0,5.12-3.92,5.12-5.3Z" transform="translate(-29.56 -191.94)"/><path d="M537.18,370h6v3.2h.13a8.21,8.21,0,0,1,7-3.83c6.72,0,8.41,3.78,8.41,9.48V393h-6.32V380c0-3.78-1.11-5.65-4.05-5.65-3.43,0-4.9,1.91-4.9,6.59V393h-6.32Z" transform="translate(-29.56 -191.94)"/><path d="M568.29,366.43H562v-5.21h6.32ZM562,370h6.32v23H562Z" transform="translate(-29.56 -191.94)"/><path d="M571,388.24l12-13.49H571.85V370h19.41v4.76l-12,13.49H592.1V393H571Z" transform="translate(-29.56 -191.94)"/><path d="M599.8,383c.18,4,2.14,5.83,5.65,5.83,2.54,0,4.58-1.56,5-3H616c-1.78,5.43-5.56,7.74-10.77,7.74-7.25,0-11.75-5-11.75-12.11,0-6.9,4.76-12.15,11.75-12.15,7.83,0,11.62,6.59,11.17,13.66Zm10.28-4c-.58-3.2-2-4.9-5-4.9a5,5,0,0,0-5.25,4.9Z" transform="translate(-29.56 -191.94)"/><path d="M635.67,390.06h-.09c-1.47,2.49-4,3.56-7,3.56-6.94,0-10.33-6-10.33-12.33,0-6.19,3.43-11.93,10.19-11.93a8,8,0,0,1,6.85,3.43h0V361.22h6.32V393h-6Zm-5.52-15.93c-4.14,0-5.56,3.56-5.56,7.34,0,3.6,1.65,7.39,5.56,7.39,4.18,0,5.43-3.65,5.43-7.43S634.25,374.13,630.15,374.13Z" transform="translate(-29.56 -191.94)"/><path d="M664.73,367.1h-9.52v-5.88h26v5.88h-9.53V393h-7Z" transform="translate(-29.56 -191.94)"/><path d="M684,361.22h23.77v5.88H691v6.81h15.4v5.43H691v7.79h17.14V393H684Z" transform="translate(-29.56 -191.94)"/><path d="M711.06,361.22h13.71c8.23,0,14.42,5.16,14.42,15.71,0,9.21-4.72,16.07-14.42,16.07H711.06Zm7,25.9h6.23c4,0,7.92-2.49,7.92-9.52,0-6.41-2.23-10.5-9.17-10.5h-5Z" transform="translate(-29.56 -191.94)"/><path d="M759.18,383c.18,4,2.14,5.83,5.65,5.83,2.54,0,4.58-1.56,5-3h5.56c-1.78,5.43-5.56,7.74-10.77,7.74-7.25,0-11.75-5-11.75-12.11,0-6.9,4.76-12.15,11.75-12.15,7.83,0,11.62,6.59,11.17,13.66Zm10.28-4c-.58-3.2-2-4.9-5-4.9a5,5,0,0,0-5.25,4.9Z" transform="translate(-29.56 -191.94)"/><path d="M790.47,393h-7l-7.88-23h6.63L787,385.7h.09L792,370h6.28Z" transform="translate(-29.56 -191.94)"/><path d="M804.31,383c.18,4,2.14,5.83,5.65,5.83,2.54,0,4.58-1.56,5-3h5.56c-1.78,5.43-5.56,7.74-10.77,7.74-7.25,0-11.75-5-11.75-12.11,0-6.9,4.76-12.15,11.75-12.15,7.83,0,11.62,6.59,11.17,13.66Zm10.28-4c-.58-3.2-2-4.9-5-4.9a5,5,0,0,0-5.25,4.9Z" transform="translate(-29.56 -191.94)"/><path d="M823.76,370h6v3.2h.13a8.21,8.21,0,0,1,7-3.83c6.72,0,8.41,3.78,8.41,9.48V393H839V380c0-3.78-1.11-5.65-4.05-5.65-3.43,0-4.9,1.91-4.9,6.59V393h-6.32Z" transform="translate(-29.56 -191.94)"/><path d="M857.27,370h4.63v4.23h-4.63v11.39c0,2.14.53,2.67,2.67,2.67a9.72,9.72,0,0,0,2-.18V393a24.2,24.2,0,0,1-3.69.22c-3.87,0-7.25-.89-7.25-5.47V374.22h-3.83V370h3.83v-6.9h6.32Z" transform="translate(-29.56 -191.94)"/><path class="cls-2" d="M109,256.08H79.33V229h91.88v27.12H141.56v78.7H109Z" transform="translate(-29.56 -191.94)"/><path class="cls-2" d="M176.27,229h89.19v27.12H208.87v13.19h56.59v25.2H208.87v13.19h56.6v27.12H176.27Z" transform="translate(-29.56 -191.94)"/><path class="cls-2" d="M270.95,229h53.5c35.27,0,47.73,26.08,47.73,52.75,0,32.47-17.19,53.06-54.1,53.06H270.95Zm32.6,78.7H316.3c20.31,0,23.28-16.46,23.28-26.4,0-6.66-2.09-25.18-25.65-25.18H303.55Z" transform="translate(-29.56 -191.94)"/><path class="cls-2" d="M419,294l-9.95-16.49L399.38,294H375.49l22.68-33.35-21.84-31.9h23.89l8.85,15.77,9.1-15.77h23.89l-21.83,31.9L442.92,294Z" transform="translate(-29.56 -191.94)"/><text class="cls-3" transform="translate(425.57 142.85)">SoMa</text></svg>